<svg xmlns="http://www.w3.org/2000/svg" viewBox="0 0 512.003 512.003"><path d="M497.003 241.001c-8.284 0-15 6.716-15 15 0 124.617-101.384 226-226 226-124.617 0-226-101.383-226-226s101.383-226 226-226c37.999 0 74.962 9.435 107.959 27.413l-18.753 18.753a15.001 15.001 0 0010.606 25.607h71.773c8.284 0 15-6.716 15-15V15.001a14.999 14.999 0 00-9.26-13.858 14.995 14.995 0 00-16.347 3.252l-31.017 31.017C346.675 12.215 302.005.002 256.002.002c-68.38 0-132.668 26.629-181.02 74.98C26.63 123.335.002 187.622.002 256.002s26.628 132.667 74.98 181.019c48.353 48.353 112.64 74.982 181.02 74.982s132.667-26.629 181.019-74.982c48.353-48.352 74.98-112.639 74.98-181.019.002-8.285-6.714-15.001-14.998-15.001z"/><path d="M352.402 241.001h-81.399v-81.4c0-8.284-6.716-15-15-15s-15 6.716-15 15v96.4c0 8.284 6.716 15 15 15h96.399c8.284 0 15-6.716 15-15s-6.716-15-15-15z"/></svg>