<svg height="512" viewBox="0 0 74 74" width="512" xmlns="http://www.w3.org/2000/svg"><path d="M19 25.86a1 1 0 01-.035-2 100.408 100.408 0 0014.649-1.24.961.961 0 01.262-.018 7.184 7.184 0 013.425 1.08 1 1 0 01-.581 1.809 1.029 1.029 0 01-.647-.229 4.99 4.99 0 00-2.205-.653 103.883 103.883 0 01-14.842 1.251z"/><path d="M55.58 49.65a4.032 4.032 0 01-2.375-.77l-.215-.149a.98.98 0 01-.119-.1L41.1 40.154a1 1 0 111.161-1.628l.8.57 11.015 7.943a.943.943 0 01.094.077l.191.133a2.083 2.083 0 002.841-.393A2.051 2.051 0 0057.561 45a2.006 2.006 0 00-.665-1.011L41.152 31.162c-6.029 3.2-10.3 1.554-12.339.251a2.3 2.3 0 01.195-3.969l9.012-4.786a4.919 4.919 0 013.768-.33l5.331 1.73a6.932 6.932 0 004.8-.173l2.322-.951A1 1 0 1155 24.785l-2.32.95a8.916 8.916 0 01-6.182.224l-5.326-1.729a2.9 2.9 0 00-2.219.2l-9.014 4.787a.3.3 0 00-.172.263.274.274 0 00.128.255c2.1 1.342 5.705 2.326 10.866-.639a1 1 0 011.13.092l16.26 13.25a3.987 3.987 0 011.328 2 4.083 4.083 0 01-.7 3.645 4.032 4.032 0 01-3.199 1.567z"/><path d="M51.442 54.285a4.077 4.077 0 01-2.365-.753l-10.81-7.67a1 1 0 011.157-1.631l10.81 7.669a2.1 2.1 0 002.44-3.414L41.9 40.721a1 1 0 011.166-1.621l10.777 7.766a4.1 4.1 0 01-2.4 7.421z"/><path d="M46.775 58.292a3.941 3.941 0 01-2.251-.707l-9.687-6.71a1 1 0 011.139-1.645l9.687 6.71a1.969 1.969 0 002.74-.5 1.976 1.976 0 00-.48-2.725l-9.64-6.838a1 1 0 111.157-1.631l9.64 6.838a3.983 3.983 0 01.969 5.493 3.942 3.942 0 01-2.549 1.65 4 4 0 01-.725.065z"/><path d="M41.061 61.58a4 4 0 01-1.991-.542l-5.377-3.1a1 1 0 011-1.732l5.376 3.1a2 2 0 002.7-.716 1.96 1.96 0 00-.587-2.621l-6.87-4.759a1 1 0 011.139-1.644l6.869 4.758a3.982 3.982 0 01-2.26 7.256z"/><path d="M29.738 60.983a4.02 4.02 0 01-2.656-7.043l2.671-2.34a4.022 4.022 0 015.676.369 4.022 4.022 0 01-.37 5.676l-2.671 2.345a4.006 4.006 0 01-2.65.993zm2.667-8.383a2.013 2.013 0 00-1.333.5L28.4 55.443a2.022 2.022 0 102.667 3.04l2.671-2.345a2.021 2.021 0 00-1.333-3.538z"/><path d="M23.684 58.259c-.089 0-.178 0-.267-.008a4 4 0 01-2.762-1.36A4.036 4.036 0 0121 51.182l4.462-3.917a4.022 4.022 0 015.676.369l-.723.693.751-.66a4.021 4.021 0 01-.369 5.676l-4.466 3.917a3.99 3.99 0 01-2.647.999zm4.425-9.994a2.007 2.007 0 00-1.331.5l-4.462 3.917a2.052 2.052 0 001.231 3.57 2 2 0 001.465-.5l4.462-3.917a2.022 2.022 0 00.186-2.854l-.029-.033a2.006 2.006 0 00-1.384-.679 3.293 3.293 0 00-.139-.003z"/><path d="M18.638 54.588c-.088 0-.177 0-.267-.008a4 4 0 01-2.762-1.36l-.109-.13a4.022 4.022 0 01.371-5.674l5.173-4.541a4.021 4.021 0 015.676.369l.113.129a4.021 4.021 0 01-.371 5.674l-5.173 4.541a3.992 3.992 0 01-2.651 1zm5.053-10.712a2.008 2.008 0 00-1.331.5l-5.173 4.541A2.024 2.024 0 0017 51.773l.113.129a2.023 2.023 0 002.853.184l5.173-4.541a2.022 2.022 0 00.186-2.854l-.111-.127a2.007 2.007 0 00-1.387-.682 1.581 1.581 0 00-.136-.006z"/><path d="M14.291 50.137c-.088 0-.178 0-.267-.009a4.048 4.048 0 01-2.424-7.075l3.239-2.843a4.021 4.021 0 015.676.369l.035.04a4.021 4.021 0 01-.369 5.676l-3.239 2.843a3.991 3.991 0 01-2.651.999zm3.2-8.927a2.008 2.008 0 00-1.331.5l-3.239 2.843a2.022 2.022 0 00-.186 2.854 2.036 2.036 0 002.888.226l3.239-2.843a2.022 2.022 0 00.186-2.854l-.035-.04a2.007 2.007 0 00-1.388-.683l-.139-.003z"/><path d="M12.477 44.612a.994.994 0 01-.6-.2l-3.417-2.6a1 1 0 011.211-1.592l3.417 2.6a1 1 0 01-.606 1.8zM58.519 45.72a1 1 0 01-.707-1.707l5.611-5.613a1 1 0 011.414 1.414l-5.611 5.611a1 1 0 01-.707.295z"/><path d="M66.17 43.645a1 1 0 01-.853-.476l-12.21-19.86a1 1 0 01.24-1.314l12.093-9.366a1 1 0 011.587.567l5.947 25.947a1 1 0 01-.485 1.1l-5.831 3.277a.994.994 0 01-.488.125zm-10.889-20.62L66.517 41.3l4.341-2.44-5.43-23.692zM7.83 44a1 1 0 01-.489-.128L1.51 40.6a1 1 0 01-.485-1.1l5.948-25.944a1 1 0 011.587-.567l12.094 9.365a1 1 0 01.24 1.314L8.683 43.528A1 1 0 017.83 44zm-4.688-4.778l4.341 2.439 11.236-18.276-10.147-7.857z"/></svg>