<svg height="512pt" viewBox="-12 0 512 512.001" width="512pt" xmlns="http://www.w3.org/2000/svg"><path d="m472.867188 215.199219c8.148437-8.320313 12.800781-19.511719 12.800781-31.53125 0-19.949219-12.945313-36.988281-31.058594-42.925781 3.085937-6.554688 4.722656-13.765626 4.722656-21.074219 0-27.296875-22.203125-49.5-49.5-49.5-1.519531 0-3.039062.070312-4.550781.210937-1.875-9.074218-6.394531-17.394531-13.144531-24.015625-8.851563-8.6875-20.5625-13.472656-32.972657-13.472656-4.476562 0-8.945312.648437-13.238281 1.90625-7.164062-18.417969-25.058593-31.046875-45.425781-31.046875-9.882812 0-19.375 2.957031-27.414062 8.441406-7.792969-7.742187-18.386719-12.191406-29.585938-12.191406-11.03125 0-21.53125 4.355469-29.304688 11.929688-7.957031-5.3125-17.320312-8.179688-27.027343-8.179688-20.371094 0-38.265625 12.628906-45.429688 31.046875-4.289062-1.257813-8.761719-1.90625-13.238281-1.90625-12.40625 0-24.117188 4.785156-32.972656 13.472656-6.75 6.621094-11.265625 14.941407-13.140625 24.015625-1.515625-.140625-3.035157-.210937-4.554688-.210937-27.292969 0-49.5 22.203125-49.5 49.5 0 7.308593 1.640625 14.519531 4.722657 21.074219-18.113282 5.9375-31.054688 22.976562-31.054688 42.925781 0 12.019531 4.648438 23.210937 12.800781 31.53125-9.222656 7.941406-14.800781 19.664062-14.800781 32.132812 0 23.34375 18.992188 42.332031 42.332031 42.332031 4.5625 0 9-.707031 13.210938-2.089843 2.027343 20.351562 18.472656 36.511719 38.945312 38.117187l2.5 37.90625c.597657 9.09375 5.648438 17.28125 13.503907 21.898438l44.871093 26.371094-1.734375 15.21875c-8.851562.859374-15.796875 8.339843-15.796875 17.414062v7.5h-2.800781c-6.859375 0-13.257812 3.070312-17.550781 8.421875s-5.902344 12.261719-4.414063 18.960937l3.335938 15c2.304687 10.371094 11.335937 17.617188 21.964844 17.617188h158.964843c4.144531 0 7.5-3.359375 7.5-7.5s-3.355469-7.5-7.5-7.5h-158.964843c-3.542969 0-6.554688-2.414062-7.324219-5.871094l-3.332031-15c-.496094-2.234375.042968-4.539062 1.472656-6.320312 1.429687-1.785156 3.5625-2.808594 5.851562-2.808594h10.296875c4.144531 0 7.5-3.359375 7.5-7.5v-15c0-1.378906 1.125-2.5 2.5-2.5h177c1.378907 0 2.5 1.121094 2.5 2.5v7.5h-154.5c-4.140625 0-7.5 3.359375-7.5 7.5s3.359375 7.5 7.5 7.5h172.300781c2.289063 0 4.417969 1.023438 5.851563 2.808594 1.429687 1.78125 1.96875 4.085937 1.472656 6.320312l-3.335937 15c-.769532 3.457032-3.777344 5.871094-7.320313 5.871094h-16.96875c-4.140625 0-7.5 3.359375-7.5 7.5 0 4.144531 3.359375 7.5 7.5 7.5h16.96875c10.625 0 19.660157-7.242188 21.964844-17.617188l3.332031-15c1.488282-6.699218-.121094-13.609374-4.414062-18.960937-4.292969-5.351563-10.6875-8.421875-17.550782-8.421875h-2.800781v-7.5c0-9.074219-6.941406-16.554688-15.792969-17.414062l-1.734374-15.21875 44.871093-26.371094c7.855469-4.617188 12.90625-12.804688 13.503907-21.898438l2.5-37.90625c20.472656-1.601562 36.917968-17.765625 38.945312-38.117187 4.210938 1.382812 8.648438 2.089843 13.210938 2.089843 23.339843 0 42.332031-18.988281 42.332031-42.332031 0-12.46875-5.578125-24.191406-14.800781-32.132812zm-354.773438 157.367187c-3.570312-2.101562-5.867188-5.824218-6.140625-9.957031l-2.527344-38.371094c5.65625-1.585937 10.890625-4.328125 15.40625-8.058593l2.152344 34.4375c.394531 6.316406 4.179687 11.941406 9.882813 14.683593l22.558593 10.84375-2.207031 19.417969zm205.171875-40.117187c8.605469-.292969 16.800781-2.730469 23.957031-6.933594l-1.507812 24.167969c-.058594.902344-.597656 1.707031-1.414063 2.097656l-17.855469 8.582031zm-15.300781-1.808594 10.964844 96.359375h-150.195313l10.964844-96.308594c9.488281-2.59375 17.988281-7.886718 24.507812-15.273437 8.976563 12.367187 23.53125 20.082031 39.292969 20.082031 16.042969 0 30.703125-7.878906 39.625-20.527344 6.558594 7.519532 15.230469 12.988282 24.839844 15.667969zm-146.742188 29.722656-17.855468-8.582031c-.816407-.390625-1.355469-1.195312-1.414063-2.097656l-1.507813-24.164063c7.15625 4.199219 15.351563 6.636719 23.957032 6.933594zm214.492188 2.246094c-.273438 4.132813-2.570313 7.855469-6.140625 9.957031l-39.125 22.992188-2.210938-19.414063 22.5625-10.84375c5.703125-2.742187 9.488281-8.367187 9.882813-14.683593l2.152344-34.4375c4.515624 3.730468 9.75 6.472656 15.40625 8.058593zm69.617187-87.941406c-6.207031 0-12.0625-2.035157-16.929687-5.886719-2.523438-1.996094-6.035156-2.160156-8.734375-.410156s-3.980469 5.027344-3.1875 8.144531c.566406 2.21875.851562 4.511719.851562 6.820313 0 15.160156-12.335937 27.5-27.5 27.5-9.640625 0-18.414062-4.921876-23.464843-13.15625-1.414063-2.308594-3.964844-3.675782-6.660157-3.578126-2.703125.097657-5.144531 1.640626-6.390625 4.042969-6.199218 11.941407-18.390625 19.355469-31.816406 19.355469-13.777344 0-26.496094-8.054688-32.402344-20.519531-1.308594-2.761719-4.167968-4.460938-7.207031-4.28125-3.050781.179687-5.6875 2.183593-6.671875 5.078125-4.617188 13.589844-17.363281 22.722656-31.71875 22.722656-14.046875 0-26.707031-8.867188-31.5-22.066406-1.023438-2.820313-3.625-4.757813-6.617188-4.929688-.144531-.007812-.289062-.011718-.433593-.011718-2.828125 0-5.433594 1.597656-6.707031 4.148437-6.117188 12.25-18.40625 19.859375-32.074219 19.859375-13.429688 0-25.621094-7.417969-31.820313-19.359375-1.246094-2.398437-3.6875-3.941406-6.386718-4.039063-2.71875-.105468-5.25 1.269532-6.664063 3.578126-5.046875 8.234374-13.820313 13.152343-23.460937 13.152343-15.164063 0-27.5-12.335937-27.5-27.5 0-2.304687.285156-4.601562.851562-6.816406.792969-3.117187-.488281-6.394531-3.1875-8.144531-2.699219-1.753906-6.210938-1.585938-8.734375.410156-4.867187 3.851562-10.722656 5.882812-16.929687 5.882812-15.074219 0-27.335938-12.261718-27.335938-27.332031 0-10.535156 6.167969-20.246093 15.714844-24.742187 2.492187-1.171875 4.144531-3.621094 4.292968-6.375.152344-2.75-1.21875-5.363282-3.570312-6.804688-9.039062-5.539062-14.4375-15.164062-14.4375-25.746094 0-16.050781 12.546875-29.28125 28.558594-30.121093 2.816406-.148438 5.3125-1.863281 6.457031-4.4375 1.148437-2.574219.757813-5.578125-1.015625-7.769531-5.015625-6.199219-7.664062-13.691407-7.664062-21.671876 0-19.019531 15.476562-34.5 34.5-34.5 3.066406 0 6.128906.414063 9.105468 1.226563 2.226563.609375 4.613282.15625 6.460938-1.226563 1.851562-1.382812 2.960937-3.542968 3.011718-5.851562.363282-17.324219 14.757813-31.421875 32.085938-31.421875 5.171875 0 10.121094 1.203125 14.707031 3.570313 2.105469 1.085937 4.597657 1.117187 6.726563.078124 2.128906-1.039062 3.644531-3.023437 4.082031-5.351562 3.007813-15.898438 16.949219-27.4375 33.152344-27.4375 8.535156 0 16.683593 3.199219 22.945312 9.007812 1.589844 1.476563 3.738281 2.1875 5.894531 1.960938 2.15625-.230469 4.109376-1.382812 5.351563-3.160156 5.058594-7.238282 13.335937-11.558594 22.140625-11.558594 8.957031 0 17.3125 4.429688 22.355469 11.855469 1.238281 1.820312 3.214843 3.007812 5.40625 3.242187 2.195312.230469 4.375-.507812 5.972656-2.027344 6.304687-6.011718 14.570313-9.320312 23.265625-9.320312 16.207031 0 30.148438 11.539062 33.152344 27.4375.4375 2.328125 1.953125 4.3125 4.082031 5.351562 2.128906 1.035157 4.625 1.007813 6.730469-.078124 4.582031-2.367188 9.53125-3.570313 14.703125-3.570313 17.328125 0 31.722656 14.097656 32.089843 31.421875.046876 2.308594 1.15625 4.46875 3.007813 5.851562 1.851563 1.382813 4.234375 1.835938 6.464844 1.226563 2.972656-.8125 6.035156-1.226563 9.105469-1.226563 19.023437 0 34.5 15.480469 34.5 34.5 0 7.980469-2.652344 15.472657-7.664063 21.671876-1.773437 2.191406-2.167969 5.195312-1.019531 7.769531 1.144531 2.574219 3.640625 4.289062 6.457031 4.4375 16.015625.839843 28.558594 14.070312 28.558594 30.121093 0 10.582032-5.394531 20.207032-14.4375 25.746094-2.351563 1.441406-3.722657 4.054688-3.570313 6.804688.148438 2.753906 1.800782 5.203125 4.292969 6.375 9.546875 4.496094 15.714844 14.207031 15.714844 24.742187 0 15.074219-12.261719 27.335938-27.335938 27.335938zm0 0"/><path d="m243.832031 348c-17.644531 0-32 14.355469-32 32s14.355469 32 32 32 32-14.355469 32-32-14.355469-32-32-32zm0 49c-9.371093 0-17-7.625-17-17s7.628907-17 17-17c9.375 0 17 7.625 17 17s-7.625 17-17 17zm0 0"/><path d="m165.332031 183h-5v-7.75c0-4.140625-3.355469-7.5-7.5-7.5-4.140625 0-7.5 3.359375-7.5 7.5v7.75h-5c-15.164062 0-27.5 12.335938-27.5 27.5 0 6.035156 4.300781 11.085938 10 12.246094v6.253906c0 16.542969 13.460938 30 30 30 16.542969 0 30-13.457031 30-30v-6.253906c5.699219-1.160156 10-6.210938 10-12.246094 0-15.164062-12.335937-27.5-27.5-27.5zm-25 15h25c6.039063 0 11.089844 4.300781 12.25 10h-49.496093c1.160156-5.699219 6.210937-10 12.246093-10zm12.5 46c-8.269531 0-15-6.730469-15-15v-6h30v6c0 8.269531-6.726562 15-15 15zm0 0"/><path d="m347.332031 183h-5v-7.75c0-4.140625-3.355469-7.5-7.5-7.5-4.140625 0-7.5 3.359375-7.5 7.5v7.75h-5c-15.160156 0-27.5 12.335938-27.5 27.5 0 6.035156 4.300781 11.085938 10 12.246094v6.253906c0 16.542969 13.460938 30 30 30 16.542969 0 30-13.457031 30-30v-6.253906c5.699219-1.160156 10-6.210938 10-12.246094 0-15.164062-12.335937-27.5-27.5-27.5zm-25 15h25c6.039063 0 11.089844 4.300781 12.25 10h-49.496093c1.160156-5.699219 6.210937-10 12.246093-10zm12.5 46c-8.269531 0-15-6.730469-15-15v-6h30v6c0 8.269531-6.726562 15-15 15zm0 0"/><path d="m256.332031 92h-5v-7.75c0-4.140625-3.355469-7.5-7.5-7.5-4.140625 0-7.5 3.359375-7.5 7.5v7.75h-5c-15.164062 0-27.5 12.335938-27.5 27.5 0 6.035156 4.300781 11.085938 10 12.246094v6.253906c0 16.542969 13.460938 30 30 30 16.542969 0 30-13.457031 30-30v-6.253906c5.699219-1.160156 10-6.210938 10-12.246094 0-15.164062-12.335937-27.5-27.5-27.5zm-25 15h25c6.039063 0 11.089844 4.300781 12.25 10h-49.496093c1.160156-5.699219 6.210937-10 12.246093-10zm12.5 46c-8.269531 0-15-6.730469-15-15v-6h30v6c0 8.269531-6.726562 15-15 15zm0 0"/></svg>