<svg xmlns="http://www.w3.org/2000/svg" viewBox="0 0 437.04 437.04"><path d="M207.64 0H92.52c-9.146 0-16.56 7.414-16.56 16.56v403.92c0 9.146 7.414 16.56 16.56 16.56h115.12c9.146 0 16.56-7.414 16.56-16.56v-404C224.156 7.365 216.755 0 207.64 0zm.56 34.48h-29.36a8 8 0 000 16h29.28v16h-29.28a8 8 0 000 16h29.28v16h-54.8a8 8 0 000 16h54.88v16h-29.36a8 8 0 000 16h29.28v16h-29.28a8 8 0 000 16h29.28v16h-54.8a8 8 0 000 16h54.88v16h-29.36a8 8 0 000 16h29.28v16h-29.28a8 8 0 000 16h29.28v16h-54.8a8 8 0 000 16h54.88v16h-29.36a8 8 0 000 16h29.28v16h-29.28a8 8 0 000 16h29.28v16h-54.8a8 8 0 000 16h54.88v17.92l-.56.64-115.6-.56L92.6 16l115.6.56v17.92zM361.08 59.84c-.036-8.871-7.056-16.137-15.92-16.48h-69.28c-9.146 0-16.56 7.414-16.56 16.56V259.2a7.981 7.981 0 010 2.32l43.2 145.28a8 8 0 0015.36 0l43.2-145.28a7.981 7.981 0 010-2.32V59.84zM275.4 119.6h26.8v131.6l-26.8.16V119.6zm35.12 257.04l-11.68-38.72a35.385 35.385 0 014.56 1.68 37.529 37.529 0 0015.44 3.84h1.28l-9.6 33.2zm14.96-50.32a17.28 17.28 0 01-15.52-1.2 29.355 29.355 0 00-16-3.2l-16-54.56h64.88l-17.36 58.96zm20.24-75.12h-27.2V119.6h27.2v131.6zm0-147.6h-70v-44l70 .48v43.52z"/></svg>